<svg width="439" height="98" viewBox="0 0 439 98" fill="none" xmlns="http://www.w3.org/2000/svg">
<path d="M412.701 81.5663V35.2262H423.174V45.5325L422.328 43.9942C423.405 40.5332 425.084 38.1104 427.353 36.7516C429.686 35.3928 432.468 34.7134 435.698 34.7134H438.429V44.5967H434.429C431.25 44.5967 428.699 45.5966 426.763 47.5835C424.828 49.5192 423.866 52.2368 423.866 55.7619V81.5663H412.701Z" fill="white"/>
<path d="M382.516 82.5917C377.747 82.5917 373.568 81.515 369.992 79.3486C366.416 77.195 363.634 74.2595 361.647 70.5805C359.66 66.8887 358.66 62.7995 358.66 58.3129C358.66 53.8263 359.647 49.5448 361.647 45.9555C363.698 42.315 366.441 39.4564 369.915 37.3541C373.44 35.2518 377.35 34.2006 381.67 34.2006C385.311 34.2006 388.49 34.8031 391.207 35.9953C393.989 37.1874 396.348 38.8411 398.283 40.9305C400.219 43.0328 401.693 45.4428 402.718 48.1732C403.744 50.8395 404.257 53.7365 404.257 56.8643C404.257 57.6591 404.205 58.4795 404.09 59.3384C404.039 60.1844 403.898 60.9279 403.667 61.556H367.89V53.0315H397.36L392.079 57.031C392.592 54.4159 392.451 52.0957 391.656 50.0447C390.912 48.0065 389.669 46.3785 387.913 45.1864C386.208 43.9942 384.131 43.3918 381.696 43.3918C379.26 43.3918 377.299 43.9942 375.478 45.1864C373.658 46.3273 372.274 48.0322 371.3 50.3011C370.389 52.5188 370.043 55.2107 370.274 58.3898C370.043 61.2356 370.415 63.7609 371.376 65.9657C372.402 68.1193 373.876 69.7986 375.812 70.9907C377.799 72.1829 380.068 72.7853 382.631 72.7853C385.195 72.7853 387.349 72.2469 389.105 71.1702C390.925 70.0934 392.335 68.6449 393.361 66.8246L402.385 71.2599C401.475 73.4776 400.052 75.4388 398.129 77.1437C396.194 78.8486 393.899 80.1818 391.233 81.1432C388.618 82.1046 385.721 82.5917 382.542 82.5917H382.516Z" fill="white"/>
<path d="M324.856 82.5918C320.369 82.5918 316.369 81.5406 312.844 79.4383C309.319 77.2848 306.537 74.3621 304.499 70.6703C302.448 66.9784 301.436 62.8892 301.436 58.4026C301.436 53.916 302.461 49.7756 304.499 46.135C306.537 42.4945 309.332 39.6102 312.844 37.4438C316.421 35.2903 320.395 34.2007 324.766 34.2007C328.291 34.2007 331.406 34.9057 334.136 36.3286C336.918 37.6874 339.11 39.623 340.7 42.1227L338.995 44.4173V17.0747H350.147V81.5535H339.584V72.6059L340.777 74.8236C339.187 77.3232 336.969 79.2589 334.136 80.6177C331.303 81.9252 328.201 82.579 324.856 82.579V82.5918ZM326.048 72.3752C328.599 72.3752 330.842 71.7727 332.778 70.5805C334.713 69.3884 336.213 67.7347 337.29 65.6453C338.431 63.543 338.995 61.133 338.995 58.4026C338.995 55.6722 338.431 53.352 337.29 51.2497C336.213 49.0962 334.7 47.4169 332.778 46.2247C330.842 45.0326 328.599 44.4301 326.048 44.4301C323.497 44.4301 321.305 45.0582 319.318 46.3017C317.331 47.4938 315.767 49.1474 314.639 51.2369C313.562 53.2751 313.024 55.6722 313.024 58.3898C313.024 61.1074 313.562 63.5302 314.639 65.6325C315.78 67.7348 317.331 69.3756 319.318 70.5677C321.305 71.7599 323.548 72.3624 326.048 72.3624V72.3752Z" fill="white"/>
<path d="M281.848 81.5663V17.0875H293.013V81.5663H281.848Z" fill="white"/>
<path d="M248.944 82.5918C244.406 82.5918 240.253 81.5406 236.51 79.4383C232.818 77.336 229.87 74.4646 227.652 70.8369C225.499 67.1964 224.422 63.0559 224.422 58.4026C224.422 53.7494 225.499 49.5961 227.652 45.9684C229.87 42.3278 232.818 39.4692 236.51 37.3669C240.202 35.2646 244.342 34.2135 248.944 34.2135C253.546 34.2135 257.61 35.2646 261.302 37.3669C264.994 39.4692 267.916 42.3406 270.07 45.9684C272.287 49.5448 273.39 53.6981 273.39 58.4026C273.39 63.1071 272.287 67.2092 270.07 70.8369C267.852 74.4646 264.904 77.336 261.212 79.4383C257.52 81.5406 253.431 82.5918 248.944 82.5918ZM248.944 72.3752C251.444 72.3752 253.623 71.7727 255.508 70.5805C257.443 69.3884 258.943 67.7347 260.02 65.6453C261.161 63.4917 261.725 61.069 261.725 58.4026C261.725 55.7363 261.161 53.2879 260.02 51.2497C258.943 49.1474 257.43 47.5066 255.508 46.3145C253.636 45.071 251.444 44.4429 248.944 44.4429C246.445 44.4429 244.15 45.071 242.214 46.3145C240.279 47.5066 238.753 49.1602 237.612 51.2497C236.536 53.2879 235.997 55.685 235.997 58.4026C235.997 61.1202 236.536 63.4917 237.612 65.6453C238.753 67.7476 240.279 69.3884 242.214 70.5805C244.15 71.7727 246.393 72.3752 248.944 72.3752Z" fill="white"/>
<path d="M193.371 82.5918C188.833 82.5918 184.68 81.5406 180.937 79.4383C177.245 77.336 174.297 74.4646 172.079 70.8369C169.926 67.1964 168.836 63.0559 168.836 58.4026C168.836 53.7494 169.913 49.5961 172.079 45.9684C174.297 42.3278 177.245 39.4692 180.937 37.3669C184.629 35.2646 188.769 34.2135 193.371 34.2135C197.973 34.2135 202.037 35.2646 205.716 37.3669C209.408 39.4692 212.33 42.3406 214.497 45.9684C216.714 49.5448 217.817 53.6981 217.817 58.4026C217.817 63.1071 216.714 67.2092 214.497 70.8369C212.279 74.4774 209.331 77.336 205.639 79.4383C201.947 81.5406 197.858 82.5918 193.371 82.5918ZM193.371 72.3752C195.871 72.3752 198.05 71.7727 199.934 70.5805C201.87 69.3884 203.37 67.7347 204.447 65.6453C205.588 63.4917 206.152 61.069 206.152 58.4026C206.152 55.7363 205.588 53.2879 204.447 51.2497C203.37 49.1474 201.87 47.5066 199.934 46.3145C198.063 45.071 195.871 44.4429 193.371 44.4429C190.872 44.4429 188.577 45.071 186.641 46.3145C184.706 47.5066 183.18 49.1602 182.039 51.2497C180.963 53.2879 180.424 55.685 180.424 58.4026C180.424 61.1202 180.963 63.4917 182.039 65.6453C183.18 67.7476 184.706 69.3884 186.641 70.5805C188.577 71.7727 190.82 72.3752 193.371 72.3752Z" fill="white"/>
<path d="M118.074 81.5662V18.1002H141.751C146.071 18.1002 149.865 18.895 153.16 20.4845C156.505 22.0228 159.12 24.2917 160.992 27.3041C162.863 30.2524 163.799 33.8674 163.799 38.1232C163.799 42.3791 162.838 45.9299 160.902 48.9423C159.031 51.8906 156.441 54.1724 153.147 55.7619C149.852 57.3515 146.045 58.1462 141.738 58.1462H129.637V81.5662H118.049H118.074ZM129.663 47.9168H141.93C144.033 47.9168 145.853 47.5194 147.378 46.7247C148.917 45.8786 150.109 44.7121 150.955 43.2379C151.814 41.7638 152.237 40.0589 152.237 38.1232C152.237 36.1876 151.814 34.4314 150.955 33.0085C150.109 31.5343 148.904 30.3935 147.378 29.5987C145.84 28.7526 144.033 28.3168 141.93 28.3168H129.663V47.904V47.9168Z" fill="white"/>
<path d="M29.0848 35.7902L9.34375 69.4012L14.8815 74.0288L37.6606 35.7902H29.0848Z" fill="white"/>
<path d="M47.8663 24.3686L18.7676 73.6699L25.1129 76.9515L56.4421 24.3686H47.8663Z" fill="white"/>
<path d="M73.4012 1.67926L16.3574 97.9359L24.9076 98L81.9642 1.67926H73.4012Z" fill="white"/>
<path d="M5.78129 43.1226C5.78129 22.5355 22.4714 5.84539 43.0585 5.84539C50.6344 5.84539 57.6848 8.11432 63.5686 11.9984L66.6836 6.72988C59.9665 2.47403 51.9932 0 43.443 0C19.4462 0 0 19.459 0 43.443C0 59.8255 9.06291 74.08 22.4458 81.4893L25.6377 76.0926C13.8187 69.837 5.76848 57.4284 5.76848 43.1226H5.78129Z" fill="white"/>
<path d="M76.7847 15.5877L73.3493 21.3946C77.7462 27.5092 80.3356 35.0211 80.3356 43.1226C80.3356 63.7096 63.6454 80.3997 43.0584 80.3997C41.5458 80.3997 40.0588 80.31 38.5974 80.1305L35.0723 86.0785C37.777 86.6041 40.5844 86.8861 43.4558 86.8861C67.4526 86.8861 86.9116 67.4271 86.9116 43.443C86.9116 32.8419 83.1173 23.1252 76.7976 15.5877H76.7847Z" fill="white"/>
</svg>
